# xmcd
#
# Track frame offsets:
# 150
# 16532
# 34865
# 56857
# 72468
# 98074
# 111420
# 128280
# 144992
# 169150
# 187465
#
# Disc length: 2794 seconds
#
#
# Revision: 0
# Processed by: cddbd v1.5.1PL2 Copyright (c) Steve Scherf et al.
# Submitted via: FreeRIP 2.942 
#
DISCID=990ae80b
DTITLE=Dutch Mason - Half Ain't Been Told
DYEAR=1900
DGENRE=Blues
TTITLE0=Gonna Move To The Country
TTITLE1=Walking Blues
TTITLE2=CC Rider
TTITLE3=Dusrt My Broom
TTITLE4=Light's Are On But Nobodys Home
TTITLE5=Baby Please Don't Go
TTITLE6=Polka Salad Annie
TTITLE7=Tighten Up On It
TTITLE8=Mannish Boy
TTITLE9=Gamblin' Fever
TTITLE10=Ain't Nobodys Business
EXTD=Halifax Blues
EXTT0=
EXTT1=
EXTT2=
EXTT3=
EXTT4=
EXTT5=
EXTT6=
EXTT7=
EXTT8=
EXTT9=
EXTT10=
PLAYORDER=
